<svg xmlns:xlink="http://www.w3.org/1999/xlink" width="806.042" xmlns="http://www.w3.org/2000/svg" height="818.701" id="screenshot-de9f2288-c42a-8094-8004-40a3ec0e4dfd" viewBox="-6.042 0 806.042 818.701" style="-webkit-print-color-adjust: exact;" fill="none" version="1.1"><g id="shape-de9f2288-c42a-8094-8004-40a3ec0e4dfd" rx="0" ry="0"><g id="shape-de9f2288-c42a-8094-8004-40a3ec0e4dfe"><g class="fills" id="fills-de9f2288-c42a-8094-8004-40a3ec0e4dfe"><ellipse rx="399.0000000000009" ry="400" cx="401.0000000000009" cy="400" transform="matrix(1.000000, 0.000000, 0.000000, 1.000000, 0.000000, 0.000000)" style="fill: rgb(40, 122, 137); fill-opacity: 1;"/></g></g><g id="shape-de9f2288-c42a-8094-8004-40a3ec0e4dff" rx="0" ry="0"><g id="shape-de9f2288-c42a-8094-8004-40a3ec0e4e0f" rx="0" ry="0" style="fill: rgb(0, 0, 0);"><g id="shape-de9f2288-c42a-8094-8004-40a3ec0e4e20"><g class="fills" id="fills-de9f2288-c42a-8094-8004-40a3ec0e4e20"><path rx="0" ry="0" d="M591.227,116.304C589.233,112.306,543.422,60.845,544.368,61.328C554.338,66.326,619.148,127.851,626.625,135.348C627.631,136.872,628.130,138.539,628.121,140.346C621.550,140.657,604.597,141.271,598.206,140.293C596.002,131.171,594.717,124.800,591.227,116.304ZL591.227,116.304Z" style="shape-rendering: geometricprecision; text-rendering: geometricprecision; fill-rule: evenodd; clip-rule: evenodd; opacity: 1; fill: rgb(229, 191, 103);"/></g></g></g><g id="shape-de9f2288-c42a-8094-8004-40a3ec0e4e10" rx="0" ry="0" style="fill: rgb(0, 0, 0);"><g id="shape-de9f2288-c42a-8094-8004-40a3ec0e4e21"><g class="fills" id="fills-de9f2288-c42a-8094-8004-40a3ec0e4e21"><path rx="0" ry="0" d="M598.206,152.288C608.514,152.122,629.788,154.340,640.085,154.839C642.537,156.297,644.698,158.129,646.565,160.337C648.839,164.282,651.498,167.947,654.541,171.332C655.030,172.625,655.196,173.958,655.040,175.330C639.417,175.497,610.831,175.777,595.215,175.278C597.209,168.281,597.209,160.284,598.206,152.288ZL598.206,152.288Z" style="shape-rendering: geometricprecision; text-rendering: geometricprecision; fill-rule: evenodd; clip-rule: evenodd; opacity: 1; fill: rgb(234, 195, 105);"/></g></g></g><g id="shape-de9f2288-c42a-8094-8004-40a3ec0e4e11" rx="0" ry="0" style="fill: rgb(0, 0, 0);"><g id="shape-de9f2288-c42a-8094-8004-40a3ec0e4e22"><g class="fills" id="fills-de9f2288-c42a-8094-8004-40a3ec0e4e22"><path rx="0" ry="0" d="M592.224,185.273C612.831,185.106,644.408,189.324,665.010,189.824C666.437,190.289,667.599,191.122,668.500,192.323C670.985,197.977,673.976,203.308,677.473,208.316C679.200,211.783,680.362,215.449,680.962,219.311C652.712,219.478,624.463,219.311,596.216,218.811C592.451,215.901,586.796,200.023,588.236,195.269C591.227,187.272,590.018,192.031,592.224,185.273ZL592.224,185.273Z" style="shape-rendering: geometricprecision; text-rendering: geometricprecision; fill-rule: evenodd; clip-rule: evenodd; opacity: 1; fill: rgb(234, 195, 102);"/></g></g></g><g id="shape-de9f2288-c42a-8094-8004-40a3ec0e4e12" rx="0" ry="0" style="fill: rgb(0, 0, 0);"><g id="shape-de9f2288-c42a-8094-8004-40a3ec0e4e23"><g class="fills" id="fills-de9f2288-c42a-8094-8004-40a3ec0e4e23"><path rx="0" ry="0" d="M690.932,239.302C691.580,241.236,691.912,243.235,691.929,245.299C663.341,245.632,634.760,245.299,606.186,244.300C605.833,243.278,596.970,246.400,595.995,246.089C594.781,243.524,599.480,239.040,601.197,235.251C630.606,234.087,658.195,233.973,687.941,234.804C689.577,235.932,690.574,237.432,690.932,239.302ZL690.932,239.302Z" style="shape-rendering: geometricprecision; text-rendering: geometricprecision; fill-rule: evenodd; clip-rule: evenodd; opacity: 1; fill: rgb(235, 195, 107);"/></g></g></g><g id="shape-de9f2288-c42a-8094-8004-40a3ec0e4e13" rx="0" ry="0" style="fill: rgb(0, 0, 0);"><g id="shape-de9f2288-c42a-8094-8004-40a3ec0e4e24"><g class="fills" id="fills-de9f2288-c42a-8094-8004-40a3ec0e4e24"><path rx="0" ry="0" d="M615.160,261.292C642.746,261.125,670.329,261.292,697.911,261.792C701.445,266.715,703.439,272.212,703.893,278.285C673.318,278.285,642.744,278.285,612.169,278.285C603.971,279.075,601.278,276.929,595.995,278.575C601.362,273.861,607.460,266.580,615.160,261.292ZL615.160,261.292Z" style="shape-rendering: geometricprecision; text-rendering: geometricprecision; fill-rule: evenodd; clip-rule: evenodd; opacity: 1; fill: rgb(230, 196, 107);"/></g></g></g><g id="shape-de9f2288-c42a-8094-8004-40a3ec0e4e14" rx="0" ry="0" style="fill: rgb(0, 0, 0);"><g id="shape-de9f2288-c42a-8094-8004-40a3ec0e4e25"><g class="fills" id="fills-de9f2288-c42a-8094-8004-40a3ec0e4e25"><path rx="0" ry="0" d="M707.881,305.273C677.637,305.440,643.684,305.563,613.442,305.063C609.233,304.854,603.225,294.239,602.475,293.568C635.709,292.902,672.654,293.111,705.887,293.778C707.565,297.396,708.230,301.228,707.881,305.273ZL707.881,305.273Z" style="shape-rendering: geometricprecision; text-rendering: geometricprecision; fill-rule: evenodd; clip-rule: evenodd; opacity: 1; fill: rgb(235, 193, 98);"/></g></g></g><g id="shape-de9f2288-c42a-8094-8004-40a3ec0e4e15" rx="0" ry="0" style="fill: rgb(0, 0, 0);"><g id="shape-de9f2288-c42a-8094-8004-40a3ec0e4e26"><g class="fills" id="fills-de9f2288-c42a-8094-8004-40a3ec0e4e26"><path rx="0" ry="0" d="M629.556,315.223C652.486,315.223,683.626,315.223,706.556,315.223C707.511,315.711,709.056,317.729,710.056,322.241C711.485,331.731,714.938,342.215,713.842,351.393C688.917,351.393,184.480,363.343,159.556,363.343C160.013,358.995,177.835,352.839,178.555,347.141C178.114,345.807,630.444,316.043,629.556,315.223ZL629.556,315.223Z" style="shape-rendering: geometricprecision; text-rendering: geometricprecision; fill-rule: evenodd; clip-rule: evenodd; opacity: 1; fill: rgb(235, 196, 102);"/></g></g></g><g id="shape-de9f2288-c42a-8094-8004-40a3ec0e4e16" rx="0" ry="0" style="fill: rgb(0, 0, 0);"><g id="shape-de9f2288-c42a-8094-8004-40a3ec0e4e27"><g class="fills" id="fills-de9f2288-c42a-8094-8004-40a3ec0e4e27"><path rx="0" ry="0" d="M633.101,363.694C660.335,365.520,685.929,365.906,713.864,365.746C715.012,376.164,715.179,386.659,714.362,397.232C684.689,398.393,178.371,412.291,148.556,411.464C147.060,410.631,179.725,388.750,179.556,383.394C178.559,383.394,631.107,370.691,633.101,363.694ZL633.101,363.694Z" style="shape-rendering: geometricprecision; text-rendering: geometricprecision; fill-rule: evenodd; clip-rule: evenodd; opacity: 1; fill: rgb(235, 197, 105);"/></g></g></g><g id="shape-de9f2288-c42a-8094-8004-40a3ec0e4e17" rx="0" ry="0" style="fill: rgb(0, 0, 0);"><g id="shape-de9f2288-c42a-8094-8004-40a3ec0e4e28"><g class="fills" id="fills-de9f2288-c42a-8094-8004-40a3ec0e4e28"><path rx="0" ry="0" d="M177.556,420.486C183.669,421.816,640.714,410.223,647.562,410.226C670.142,409.493,692.574,409.826,714.861,411.226C715.317,416.589,714.652,421.754,712.867,426.719C684.287,427.218,192.139,431.681,163.556,431.514C161.920,429.728,175.561,424.324,177.556,420.486ZL177.556,420.486Z" style="shape-rendering: geometricprecision; text-rendering: geometricprecision; fill-rule: evenodd; clip-rule: evenodd; opacity: 1; fill: rgb(233, 197, 104);"/></g></g></g><g id="shape-de9f2288-c42a-8094-8004-40a3ec0e4e18" rx="0" ry="0" style="fill: rgb(0, 0, 0);"><g id="shape-de9f2288-c42a-8094-8004-40a3ec0e4e29"><g class="fills" id="fills-de9f2288-c42a-8094-8004-40a3ec0e4e29"><path rx="0" ry="0" d="M177.556,438.531C205.142,438.364,683.290,435.215,710.873,435.715C712.254,440.675,711.590,445.339,708.879,449.708C680.632,450.208,204.806,452.733,176.556,452.566C178.662,447.791,177.003,443.751,177.556,438.531ZL177.556,438.531Z" style="shape-rendering: geometricprecision; text-rendering: geometricprecision; fill-rule: evenodd; clip-rule: evenodd; opacity: 1; fill: rgb(234, 198, 108);"/></g></g></g><g id="shape-de9f2288-c42a-8094-8004-40a3ec0e4e19" rx="0" ry="0" style="fill: rgb(0, 0, 0);"><g id="shape-de9f2288-c42a-8094-8004-40a3ec0e4e2a"><g class="fills" id="fills-de9f2288-c42a-8094-8004-40a3ec0e4e2a"><path rx="0" ry="0" d="M164.556,461.589C190.480,461.422,679.967,460.204,705.887,460.704C706.933,463.848,706.768,467.013,705.389,470.199C704.641,470.825,703.810,471.325,702.896,471.699C679.300,472.365,194.152,469.273,170.556,468.607C167.744,465.316,164.403,465.962,164.556,461.589ZL164.556,461.589Z" style="shape-rendering: geometricprecision; text-rendering: geometricprecision; fill-rule: evenodd; clip-rule: evenodd; opacity: 1; fill: rgb(235, 198, 110);"/></g></g></g><g id="shape-de9f2288-c42a-8094-8004-40a3ec0e4e1a" rx="0" ry="0" style="fill: rgb(0, 0, 0);"><g id="shape-de9f2288-c42a-8094-8004-40a3ec0e4e2b"><g class="fills" id="fills-de9f2288-c42a-8094-8004-40a3ec0e4e2b"><path rx="0" ry="0" d="M177.556,503.694C177.057,496.198,194.348,485.279,190.556,479.634C190.556,478.967,676.642,481.028,699.905,481.694C700.463,482.419,700.795,483.252,700.902,484.193C699.682,490.432,697.854,496.430,695.419,502.185C694.671,502.811,693.840,503.311,692.926,503.684C672.913,503.863,197.423,502.874,177.556,503.694ZL177.556,503.694Z" style="shape-rendering: geometricprecision; text-rendering: geometricprecision; fill-rule: evenodd; clip-rule: evenodd; opacity: 1; fill: rgb(238, 200, 113);"/></g></g></g><g id="shape-de9f2288-c42a-8094-8004-40a3ec0e4e1b" rx="0" ry="0" style="fill: rgb(0, 0, 0);"><g id="shape-de9f2288-c42a-8094-8004-40a3ec0e4e2c"><g class="fills" id="fills-de9f2288-c42a-8094-8004-40a3ec0e4e2c"><path rx="0" ry="0" d="M195.556,509.709C195.888,509.709,670.819,513.510,689.935,513.180C688.208,516.997,686.713,520.995,685.449,525.175C681.699,532.520,677.545,539.683,672.986,546.665C650.217,547.495,235.985,542.952,213.556,541.790C228.513,535.135,192.567,525.710,195.556,509.709ZL195.556,509.709Z" style="shape-rendering: geometricprecision; text-rendering: geometricprecision; fill-rule: evenodd; clip-rule: evenodd; opacity: 1; fill: rgb(232, 194, 110);"/></g></g></g><g id="shape-de9f2288-c42a-8094-8004-40a3ec0e4e1c" rx="0" ry="0" style="fill: rgb(0, 0, 0);"><g id="shape-de9f2288-c42a-8094-8004-40a3ec0e4e2d"><g class="fills" id="fills-de9f2288-c42a-8094-8004-40a3ec0e4e2d"><path rx="0" ry="0" d="M556.336,552.160C559.327,552.160,562.318,552.160,565.309,552.160C580.410,553.752,595.698,554.752,611.172,555.159C629.779,554.559,648.389,554.226,667.004,554.159C667.161,555.531,666.994,556.865,666.506,558.157C661.910,566.341,656.427,573.837,650.055,580.647C603.028,581.479,269.692,576.603,223.000,575.439C228.889,567.075,173.092,557.781,204.000,552.381C235.890,546.810,357.385,545.366,556.336,552.160ZL556.336,552.160ZL556.336,552.160Z" style="shape-rendering: geometricprecision; text-rendering: geometricprecision; fill-rule: evenodd; clip-rule: evenodd; opacity: 1; fill: rgb(236, 196, 110);"/></g></g></g><g id="shape-de9f2288-c42a-8094-8004-40a3ec0e4e1d" rx="0" ry="0" style="fill: rgb(0, 0, 0);"><g id="shape-de9f2288-c42a-8094-8004-40a3ec0e4e2e"><g class="fills" id="fills-de9f2288-c42a-8094-8004-40a3ec0e4e2e"><path rx="0" ry="0" d="M223.556,583.895C269.406,585.889,596.536,590.808,643.076,590.146C639.132,597.288,634.147,603.785,628.121,609.637C583.256,610.137,271.866,604.678,227.000,604.511C229.987,595.462,219.564,591.838,223.556,583.895ZL223.556,583.895Z" style="shape-rendering: geometricprecision; text-rendering: geometricprecision; fill-rule: evenodd; clip-rule: evenodd; opacity: 1; fill: rgb(237, 199, 111);"/></g></g></g><g id="shape-de9f2288-c42a-8094-8004-40a3ec0e4e1e" rx="0" ry="0" style="fill: rgb(0, 0, 0);"><g id="shape-de9f2288-c42a-8094-8004-40a3ec0e4e2f"><g class="fills" id="fills-de9f2288-c42a-8094-8004-40a3ec0e4e2f"><path rx="0" ry="0" d="M491.526,617.081C491.440,618.077,491.778,617.963,492.527,618.633C534.068,619.133,575.610,619.300,617.154,619.133C617.302,620.185,617.137,621.184,616.655,622.132C614.947,623.509,613.617,625.176,612.667,627.130C607.632,631.013,603.146,635.345,599.207,640.124C595.447,642.717,591.791,645.548,588.240,648.620C553.679,649.120,282.564,645.781,248.000,645.614C248.997,637.618,237.002,623.485,239.000,616.541C239.754,612.276,489.621,620.813,491.526,617.081ZL491.526,617.081Z" style="shape-rendering: geometricprecision; text-rendering: geometricprecision; fill-rule: evenodd; clip-rule: evenodd; opacity: 1; fill: rgb(236, 195, 106);"/></g></g></g><g id="shape-de9f2288-c42a-8094-8004-40a3ec0e4e1f" rx="0" ry="0" style="fill: rgb(0, 0, 0);"><g id="shape-de9f2288-c42a-8094-8004-40a3ec0e4e30"><g class="fills" id="fills-de9f2288-c42a-8094-8004-40a3ec0e4e30"><path rx="0" ry="0" d="M571.905,658.614C573.127,659.009,573.327,659.671,572.501,660.602C553.653,671.140,501.626,701.440,448.975,708.417C409.110,713.699,374.145,715.438,337.691,706.423C261.109,687.486,250.900,662.479,268.288,656.588C296.323,647.091,462.304,664.013,463.334,658.562C499.125,658.562,536.114,658.614,571.905,658.614ZL571.905,658.614Z" style="shape-rendering: geometricprecision; text-rendering: geometricprecision; fill-rule: evenodd; clip-rule: evenodd; opacity: 1; fill: rgb(235, 194, 99);"/></g></g></g></g><g id="shape-de9f2288-c42a-8094-8004-40a3ec0e4e00"><g class="fills" id="fills-de9f2288-c42a-8094-8004-40a3ec0e4e00"><path rx="0" ry="0" d="M336.000,28.070C426.847,-4.247,526.936,68.281,570.000,149.373C583.183,174.198,596.000,199.499,603.000,235.589C605.436,248.147,600.239,262.477,597.000,272.682C590.000,294.737,622.479,300.535,631.000,333.835C632.867,341.129,619.680,369.148,621.000,377.945C623.209,392.671,635.333,394.054,630.556,407.454C626.112,419.920,624.391,446.967,622.000,462.155C619.291,479.361,626.000,491.299,626.000,508.271C626.000,545.363,543.000,538.346,502.000,571.429C472.214,595.463,482.790,705.298,480.000,705.764C450.000,710.777,408.142,620.564,371.000,615.539C348.715,612.524,310.997,509.273,295.000,509.273C198.053,509.273,278.424,409.212,208.000,307.769C161.356,240.580,26.222,328.301,54.000,257.644C121.000,87.218,181.000,83.208,336.000,28.070Z" style="fill: rgb(229, 225, 210); fill-opacity: 1;"/></g></g><g id="shape-de9f2288-c42a-8094-8004-40a3ec0e4e01"><g class="fills" id="fills-de9f2288-c42a-8094-8004-40a3ec0e4e01"><path rx="0" ry="0" d="M462.850,791.931C437.858,797.222,411.989,800.000,385.500,800.000C172.737,800.000,0.000,620.766,0.000,400.000C0.000,271.757,58.289,157.529,148.853,84.308C152.772,82.762,156.654,80.844,160.519,78.321C203.390,50.333,234.754,38.985,253.241,32.341C306.082,13.350,356.053,10.045,402.792,13.559C442.672,16.558,470.185,24.074,496.511,35.549C519.442,45.545,535.394,56.540,555.335,72.533C568.570,83.148,587.239,106.518,592.224,121.511C597.209,136.504,598.206,150.498,597.209,164.492C596.566,173.520,588.236,197.477,588.236,195.478C588.236,193.479,582.254,178.486,576.272,169.490C569.521,159.338,558.074,147.148,545.365,139.503C530.409,130.507,512.071,128.128,504.487,128.508C484.547,129.507,476.571,137.504,468.595,142.502C461.371,147.028,450.649,162.493,445.664,173.488C439.530,187.015,414.756,233.461,393.819,251.453C372.882,269.445,347.957,289.436,339.980,314.425C333.716,334.051,333.998,370.400,333.998,370.400C333.998,382.560,348.725,433.672,347.000,435.088C325.000,453.133,292.500,450.125,320.000,439.599C327.904,436.574,318.100,397.595,316.000,391.980C313.009,383.984,303.970,370.918,294.000,367.920C284.030,364.921,266.202,373.399,263.211,386.393C260.220,399.387,266.202,412.382,272.184,420.378C283.612,435.655,293.449,436.945,311.067,440.369C320.000,442.105,336.000,433.083,346.960,431.373C349.162,431.030,354.936,447.366,368.894,463.359C380.036,476.125,419.920,503.838,431.705,508.339C452.643,516.336,495.396,526.805,502.493,528.330C516.451,531.329,555.335,532.328,575.275,534.328C595.215,536.327,612.164,523.332,612.164,523.332C622.134,516.336,622.134,501.667,622.134,495.345C622.134,485.349,619.143,475.354,622.134,475.354C622.134,475.354,629.113,481.351,632.104,492.346C635.095,503.341,632.104,516.336,632.104,516.336C632.104,516.336,630.110,529.330,617.149,539.325C604.188,549.321,599.203,548.321,583.251,551.320C577.053,552.485,553.786,552.724,546.362,554.319C532.403,557.317,520.439,567.313,508.475,583.306C491.366,606.176,486.248,633.813,483.550,643.279C479.562,657.273,480.559,705.252,480.559,705.252C480.559,705.252,437.687,699.254,369.891,652.275C353.715,641.066,321.248,614.093,291.127,582.306C272.184,562.315,275.893,566.111,255.000,539.348C237.000,516.291,233.000,509.273,233.000,510.276C233.000,520.469,240.847,561.945,251.000,592.481C262.000,625.564,277.511,655.604,296.000,679.699C336.000,731.830,356.067,742.425,390.000,763.910C405.151,773.503,447.007,786.920,462.850,791.931Z" style="fill: rgb(7, 18, 57); fill-opacity: 1;"/></g></g><g id="shape-de9f2288-c42a-8094-8004-40a3ec0e4e02"><defs><linearGradient id="fill-color-gradient_rumext-id-40_0" x1="0.8130211633909687" y1="0.07183076429776955" x2="0.15915048575805035" y2="0.9332317371727581" gradientTransform="matrix(0.998583, -0.053214, 0.052949, 0.998597, -0.025766, 0.027309)"><stop offset="0" stop-color="#c4beae" stop-opacity="1"/><stop offset="1" stop-color="#7d7669" stop-opacity="1"/></linearGradient><pattern patternUnits="userSpaceOnUse" x="83.99848688989277" y="104.26130050334905" height="184.4598551336676" width="428.0030262202117" data-loading="false" patternTransform="matrix(0.998583, -0.053214, 0.052949, 0.998597, -9.981828, 16.133473)" id="fill-0-rumext-id-40"><g><rect width="428.0030262202117" height="184.4598551336676" style="fill: url(&quot;#fill-color-gradient_rumext-id-40_0&quot;);"/></g></pattern></defs><g class="fills" id="fills-de9f2288-c42a-8094-8004-40a3ec0e4e02"><path rx="0" ry="0" d="M344.097,227.391C316.194,246.090,286.749,262.330,255.765,276.110C235.444,284.339,214.447,290.294,192.771,293.976C180.518,295.274,168.230,295.929,155.909,295.940C141.563,295.155,128.365,291.184,116.313,284.025C104.520,276.452,94.693,266.981,86.833,255.610C93.577,256.076,100.312,257.490,107.039,259.853C126.353,266.108,152.360,266.686,184.034,261.099C215.216,254.035,244.795,240.339,273.081,225.856C302.002,210.407,329.378,192.826,355.207,173.115C376.618,155.158,398.330,137.557,420.344,120.313C435.108,109.033,451.669,101.056,470.028,96.385C482.280,93.556,494.585,93.222,506.941,95.385C483.936,101.486,464.225,112.854,447.806,129.489C423.151,158.084,396.585,184.649,368.109,209.184C359.666,214.822,351.662,220.890,344.097,227.391ZL344.097,227.391Z" fill="url(#fill-0-rumext-id-40)" style="shape-rendering: geometricprecision; text-rendering: geometricprecision; fill-rule: evenodd; clip-rule: evenodd; opacity: 1;"/></g></g><g id="shape-de9f2288-c42a-8094-8004-40a3ec0e4e03"><defs><linearGradient id="fill-color-gradient_rumext-id-41_0" x1="0.5" y1="0" x2="0.5" y2="1" gradientTransform="matrix(0.989578, -0.143995, 0.143271, 0.989683, -0.066425, 0.077156)"><stop offset="0" stop-color="#071338" stop-opacity="1"/><stop offset="1" stop-color="#7d7669" stop-opacity="1"/></linearGradient><pattern patternUnits="userSpaceOnUse" x="70.43770018306896" y="345.1168100162904" height="403.8009299776095" width="173.79805098746874" data-loading="false" patternTransform="matrix(0.989578, -0.143995, 0.143271, 0.989683, -76.732037, 28.299075)" id="fill-0-rumext-id-41"><g><rect width="173.79805098746874" height="403.8009299776095" style="fill: url(&quot;#fill-color-gradient_rumext-id-41_0&quot;);"/></g></pattern></defs><g class="fills" id="fills-de9f2288-c42a-8094-8004-40a3ec0e4e03"><path rx="0" ry="0" d="M61.814,356.890C61.814,356.890,52.156,429.982,61.726,493.046C66.827,526.659,73.543,562.705,114.031,619.005C149.305,668.054,203.789,707.736,271.592,734.189C279.575,737.303,212.529,690.711,181.241,661.974C141.546,625.517,113.014,589.107,90.177,533.156C62.648,465.709,61.814,356.890,61.814,356.890Z" fill="url(#fill-0-rumext-id-41)"/></g></g><g id="shape-de9f2288-c42a-8094-8004-40a3ec0e4e04" rx="0" ry="0" style="fill: rgb(0, 0, 0);"><g id="shape-de9f2288-c42a-8094-8004-40a3ec0e4e34"><g class="fills" id="fills-de9f2288-c42a-8094-8004-40a3ec0e4e34"><path rx="0" ry="0" d="M342.971,523.123C348.455,539.616,355.162,551.200,356.948,555.109C370.870,582.369,387.155,608.024,405.801,632.075C426.466,658.667,440.905,673.993,467.099,695.047C468.388,695.536,479.190,705.199,480.559,705.042C478.565,705.542,472.794,704.332,470.589,703.543C429.945,690.503,399.037,674.677,365.903,648.068C367.535,648.785,345.268,633.458,346.960,633.074C307.537,578.480,314.700,530.169,325.542,463.150C326.191,462.559,326.856,461.893,327.536,461.151C329.564,469.017,331.059,477.014,332.022,485.140C336.439,503.520,337.986,509.629,342.971,523.123ZL342.971,523.123Z" style="shape-rendering: geometricprecision; text-rendering: geometricprecision; fill-rule: evenodd; clip-rule: evenodd; opacity: 1; fill: rgb(125, 118, 105); fill-opacity: 1;"/></g></g></g><g id="shape-de9f2288-c42a-8094-8004-40a3ec0e4e05"><g class="fills" id="fills-de9f2288-c42a-8094-8004-40a3ec0e4e05"><path rx="0" ry="0" d="M390.828,252.743C389.802,255.649,387.837,257.741,385.843,262.739C377.254,287.707,374.761,311.863,377.368,338.205C382.035,367.900,391.672,395.888,406.282,422.168C433.373,464.293,470.429,494.447,517.448,512.628C514.125,513.294,510.801,513.294,507.478,512.628C475.900,502.296,446.654,487.469,419.741,468.147C409.759,460.472,401.118,451.476,393.819,441.159C394.225,439.898,379.456,413.402,376.870,409.673C377.202,409.341,372.438,399.796,369.891,395.180C370.099,394.594,364.407,382.852,362.912,381.686C361.553,376.981,361.553,370.817,359.921,366.193C360.459,364.945,359.256,354.031,357.927,349.700C358.592,349.367,353.440,316.715,357.927,307.719C359.142,301.749,360.139,295.752,360.918,289.727C360.514,288.782,366.388,275.249,367.897,273.234C370.389,270.235,372.061,268.052,373.380,267.237C379.362,260.740,383.849,256.242,390.828,252.743ZL390.828,252.743Z" style="shape-rendering: geometricprecision; text-rendering: geometricprecision; fill-rule: evenodd; clip-rule: evenodd; opacity: 1; fill: rgb(170, 161, 138); fill-opacity: 1;"/></g></g><g id="shape-de9f2288-c42a-8094-8004-40a3ec0e4e06" rx="0" ry="0" style="fill: rgb(0, 0, 0);"><g id="shape-de9f2288-c42a-8094-8004-40a3ec0e4e35"><g class="fills" id="fills-de9f2288-c42a-8094-8004-40a3ec0e4e35"><path rx="0" ry="0" d="M630.940,410.173C628.945,414.010,627.616,418.176,626.952,422.668C627.310,425.213,628.556,426.000,629.943,429.165C630.556,431.514,631.056,433.018,630.940,435.162C630.940,435.829,630.940,436.495,630.940,437.161C630.387,442.381,629.058,447.379,626.952,452.155C625.297,454.643,623.635,457.142,621.967,459.651C605.927,462.788,592.633,458.290,582.087,446.157C592.850,444.499,603.817,443.499,614.988,443.159C617.570,441.658,618.899,439.325,618.976,436.162C618.478,433.163,617.979,430.164,617.481,427.166C616.650,426.333,615.819,425.499,614.988,424.667C602.589,423.911,590.292,424.411,578.099,426.166C564.462,427.112,550.837,427.112,537.221,426.166C528.026,425.619,524.702,420.954,527.251,412.172C530.507,411.971,533.165,413.138,535.227,415.671C543.245,416.393,551.221,416.061,559.156,414.671C576.899,409.358,593.739,405.451,611.556,400.436C617.616,401.694,624.600,404.242,630.940,406.175C630.940,407.507,630.940,408.841,630.940,410.173ZL630.940,410.173Z" style="shape-rendering: geometricprecision; text-rendering: geometricprecision; fill-rule: evenodd; clip-rule: evenodd; opacity: 1; fill: rgb(7, 19, 52); fill-opacity: 1;"/></g></g></g><g id="shape-de9f2288-c42a-8094-8004-40a3ec0e4e07" rx="0" ry="0" style="fill: rgb(0, 0, 0);"><g id="shape-de9f2288-c42a-8094-8004-40a3ec0e4e36"><g class="fills" id="fills-de9f2288-c42a-8094-8004-40a3ec0e4e36"><path rx="0" ry="0" d="M529.412,226.165C544.400,229.881,551.379,239.543,550.350,255.152C543.272,252.551,536.293,249.719,529.412,246.656C511.622,241.868,494.008,242.034,476.571,247.155C470.632,247.803,465.315,249.802,460.619,253.153C452.731,255.857,445.254,259.522,438.186,264.148C437.687,263.981,437.189,263.815,436.690,263.648C450.686,243.636,469.630,231.141,493.520,226.165C505.493,224.952,517.457,224.952,529.412,226.165ZZ" style="shape-rendering: geometricprecision; text-rendering: geometricprecision; fill-rule: evenodd; clip-rule: evenodd; opacity: 1; fill: rgb(7, 19, 52); fill-opacity: 1;"/></g></g></g><g id="shape-de9f2288-c42a-8094-8004-40a3ec0e4e08" rx="0" ry="0" style="fill: rgb(0, 0, 0);"><g id="shape-de9f2288-c42a-8094-8004-40a3ec0e4e37"><g class="fills" id="fills-de9f2288-c42a-8094-8004-40a3ec0e4e37"><path rx="0" ry="0" d="M540.379,276.196C541.643,285.999,541.643,295.661,540.379,305.183C536.187,299.953,532.864,294.122,530.409,287.691C530.077,287.524,529.744,287.358,529.412,287.191C526.780,295.644,521.130,298.810,512.463,296.687C510.968,295.187,509.472,293.688,507.977,292.189C505.250,287.630,502.757,282.966,500.499,278.195C498.173,279.361,495.846,280.527,493.520,281.693C486.017,289.888,477.375,296.552,467.598,301.684C465.364,302.661,463.038,303.161,460.619,303.184C461.942,297.530,464.101,292.200,467.099,287.191C474.960,273.646,485.760,263.151,499.502,255.705C508.822,252.422,518.127,252.422,527.418,255.705C534.621,260.640,538.942,267.471,540.379,276.196ZZ" style="shape-rendering: geometricprecision; text-rendering: geometricprecision; fill-rule: evenodd; clip-rule: evenodd; opacity: 1; fill: rgb(7, 19, 52); fill-opacity: 1;"/></g></g></g><g id="shape-de9f2288-c42a-8094-8004-40a3ec0e4e09" rx="0" ry="0" style="fill: rgb(0, 0, 0);"><g id="shape-de9f2288-c42a-8094-8004-40a3ec0e4e38"><g class="fills" id="fills-de9f2288-c42a-8094-8004-40a3ec0e4e38"><path rx="0" ry="0" d="M371.386,269.736C369.878,271.751,364.407,285.728,362.413,290.226C361.782,292.124,357.244,311.141,356.930,318.714C355.933,342.703,363.048,375.482,364.407,380.187C367.897,391.681,381.356,415.171,384.846,420.669C388.335,426.666,391.825,435.162,394.317,441.659C393.362,441.206,408.290,461.834,418.744,471.146C424.749,477.991,431.395,484.155,438.684,489.638C467.188,510.659,498.760,524.819,533.400,532.119C527.687,531.861,522.036,531.194,516.451,530.120C515.454,530.120,514.457,530.120,513.460,530.120C479.860,525.684,447.624,516.521,416.750,502.632C393.983,490.139,374.208,473.979,357.428,454.154C353.066,447.282,349.909,438.286,345.963,431.164C343.968,427.166,338.651,414.838,338.983,414.171C328.702,376.796,328.869,338.813,341.476,302.221C348.029,289.486,358.996,276.991,371.386,269.736ZL371.386,269.736Z" style="shape-rendering: geometricprecision; text-rendering: geometricprecision; fill-rule: evenodd; clip-rule: evenodd; opacity: 1; fill: rgb(148, 141, 122); fill-opacity: 1;"/></g></g></g><g id="shape-de9f2288-c42a-8094-8004-40a3ec0e4e0a"><defs><linearGradient id="fill-color-gradient_rumext-id-53_0" x1="0.5" y1="0" x2="0.5" y2="1" gradientTransform="matrix(0.967280, 0.253711, -0.252525, 0.967590, 0.142622, -0.110651)"><stop offset="0" stop-color="#071338" stop-opacity="1"/><stop offset="1" stop-color="#7d7669" stop-opacity="1"/></linearGradient><pattern patternUnits="userSpaceOnUse" x="107.361125536092" y="332.77818414552166" height="278.65215503981744" width="135.02170265507266" data-loading="false" patternTransform="matrix(0.967280, 0.253711, -0.252525, 0.967590, 124.939782, -29.066203)" id="fill-0-rumext-id-53"><g><rect width="135.02170265507266" height="278.65215503981744" style="fill: url(&quot;#fill-color-gradient_rumext-id-53_0&quot;);"/></g></pattern></defs><g class="fills" id="fills-de9f2288-c42a-8094-8004-40a3ec0e4e0a"><path rx="0" ry="0" d="M149.751,390.716C154.779,371.451,161.159,341.707,168.217,330.558C175.274,319.409,155.248,332.573,139.045,357.574C122.843,382.575,113.141,451.532,121.201,494.813C129.261,538.095,150.642,562.120,161.700,578.021C178.284,601.867,204.991,624.043,204.991,624.043C204.991,624.043,165.785,547.997,156.638,507.358C145.755,459.003,144.724,409.981,149.751,390.716Z" fill="url(#fill-0-rumext-id-53)"/></g></g><g id="shape-de9f2288-c42a-8094-8004-40a3ec0e4e0b"><defs><linearGradient id="fill-color-gradient_rumext-id-54_0" x1="0.9620120220782526" y1="0.29346308156381923" x2="0.011841748107687176" y2="0.8985416708295375" gradientTransform="matrix(1.000000, 0.000000, 0.000000, 1.000000, 0.000000, 0.000000)"><stop offset="0" stop-color="#d7cdb7" stop-opacity="1"/><stop offset="1" stop-color="#071338" stop-opacity="1"/></linearGradient><pattern patternUnits="userSpaceOnUse" x="80.75781851330612" y="12.030075187969487" height="223.06474005355994" width="517.443111315808" data-loading="false" patternTransform="matrix(1.000000, 0.000000, 0.000000, 1.000000, 0.000000, 0.000000)" id="fill-0-rumext-id-54"><g><rect width="517.443111315808" height="223.06474005355994" style="fill: url(&quot;#fill-color-gradient_rumext-id-54_0&quot;);"/></g></pattern></defs><g class="fills" id="fills-de9f2288-c42a-8094-8004-40a3ec0e4e0b"><path rx="0" ry="0" d="M596.212,170.780C596.212,170.780,590.166,130.221,576.506,113.103C560.554,93.112,555.569,89.113,532.638,80.117C509.706,71.121,488.769,71.121,467.832,75.120C446.895,79.118,393.056,106.106,368.131,128.096C343.206,150.086,299.337,182.072,286.376,189.069C273.415,196.066,227.553,224.053,193.654,231.050C161.296,237.729,134.831,237.048,112.896,222.054C90.962,207.061,82.986,191.068,80.992,187.070C78.998,183.072,89.965,197.065,104.920,200.064C119.876,203.063,170.723,207.061,208.609,190.069C246.496,173.076,310.304,130.095,314.293,126.097C318.281,122.099,388.071,71.121,416.985,59.127C441.166,49.095,460.853,43.134,465.838,42.134C470.823,41.135,430.360,41.573,408.011,44.133C373.116,48.132,318.281,78.118,278.400,101.108C238.520,124.098,235.529,129.096,216.586,137.092C197.642,145.089,159.756,159.082,158.759,159.082C157.762,159.082,188.669,110.104,224.562,91.112C257.091,73.901,281.391,53.129,308.310,44.133C335.230,35.137,319.278,26.141,317.284,25.142C308.366,20.672,289.133,22.346,273.181,26.344C257.229,30.342,307.079,13.350,356.167,12.148C395.090,11.195,442.907,16.146,466.835,23.143C490.763,30.140,521.671,43.134,545.599,62.125C569.527,81.117,588.051,105.252,594.452,123.098C601.696,143.292,596.212,170.780,596.212,170.780Z" fill="url(#fill-0-rumext-id-54)"/></g></g><g id="shape-de9f2288-c42a-8094-8004-40a3ec0e4e0c"><g class="fills" id="fills-de9f2288-c42a-8094-8004-40a3ec0e4e0c"><path rx="0" ry="0" d="M601.197,235.251C601.197,235.251,593.095,235.893,589.233,240.249C585.245,244.747,581.257,250.244,581.257,259.240C581.257,268.236,584.618,280.800,587.737,288.227C591.725,297.723,606.443,313.409,611.167,317.714C622.134,327.710,626.621,328.709,629.113,331.708C632.441,335.711,625.000,341.855,623.630,342.703C619.305,345.382,611.860,344.524,605.185,347.201C595.215,351.199,586.923,360.618,584.248,364.194C582.752,366.193,582.590,370.656,584.248,372.690C586.069,374.924,590.397,374.498,592.224,373.190C595.149,371.095,598.705,366.193,604.188,363.194C610.377,359.810,615.654,360.695,616.651,363.194C618.177,367.021,617.648,367.192,615.155,370.691C614.336,371.841,611.167,377.188,614.158,377.188C617.149,377.188,617.648,378.687,620.639,377.188C623.854,375.576,625.961,373.352,629.113,370.191C631.107,368.192,633.101,364.788,634.098,362.694C635.655,359.429,635.892,358.110,636.500,356.892C637.497,354.893,637.918,354.566,639.000,351.880C640.180,348.949,639.791,350.116,641.077,346.202C643.000,340.351,642.780,341.594,643.500,338.346C644.500,333.835,644.501,333.827,645.000,331.328C645.391,329.368,643.000,324.812,641.500,323.810C637.956,321.441,632.603,317.714,628.116,313.716C623.104,309.249,615.317,301.884,612.164,298.723C608.176,294.724,602.239,289.152,603.690,286.728C605.185,284.229,611.167,279.231,613.161,278.232C615.155,277.232,618.645,270.735,617.648,269.236C617.371,268.820,616.651,270.235,612.164,272.734C609.699,274.107,603.191,276.732,603.191,276.732C603.191,276.732,607.678,271.735,610.669,268.736C613.660,265.737,616.152,263.738,617.149,261.739C618.146,259.740,614.820,260.130,613.161,261.239C610.170,263.238,607.678,265.737,604.687,266.737C601.696,267.736,602.693,267.237,603.191,263.238C603.686,259.271,604.687,260.762,604.687,255.242C604.687,249.744,606.182,247.246,606.182,243.247C606.182,239.249,601.197,235.251,601.197,235.251Z" style="fill: rgb(7, 19, 52); fill-opacity: 1;"/></g></g><g id="shape-de9f2288-c42a-8094-8004-40a3ec0e4e0d"><g class="fills" id="fills-de9f2288-c42a-8094-8004-40a3ec0e4e0d"><path rx="0" ry="0" d="M404.475,268.236C404.475,268.236,395.501,314.216,399.489,341.204C403.168,366.100,421.424,408.174,419.430,406.175C411.936,398.662,402.378,372.219,398.492,358.196C393.507,340.204,392.510,316.215,395.501,299.222C397.415,288.350,404.475,268.236,404.475,268.236Z" style="fill: rgb(170, 161, 138); fill-opacity: 1;"/></g></g><g id="shape-de9f2288-c42a-8094-8004-40a3ec0e4e0e"><defs><linearGradient id="fill-color-gradient_rumext-id-57_0" x1="0.5" y1="0" x2="0.5" y2="1" gradientTransform="matrix(1.000000, 0.000000, 0.000000, 1.000000, 0.000000, 0.000000)"><stop offset="0" stop-color="#071338" stop-opacity="1"/><stop offset="1" stop-color="#7d7669" stop-opacity="1"/></linearGradient><pattern patternUnits="userSpaceOnUse" x="202.3930513358173" y="334.206948130246" height="318.85833379066753" width="168.49470776233284" data-loading="false" patternTransform="matrix(1.000000, 0.000000, 0.000000, 1.000000, 0.000000, 0.000000)" id="fill-0-rumext-id-57"><g><rect width="168.49470776233284" height="318.85833379066753" style="fill: url(&quot;#fill-color-gradient_rumext-id-57_0&quot;);"/></g></pattern></defs><g class="fills" id="fills-de9f2288-c42a-8094-8004-40a3ec0e4e0e"><path rx="0" ry="0" d="M370.888,653.065C370.888,653.065,325.664,622.120,284.787,575.140C262.189,549.170,247.898,532.160,231.945,505.172C208.720,465.878,198.047,425.207,204.029,396.220C204.029,396.220,216.344,341.893,223.969,334.248C225.963,332.248,214.582,404.616,227.957,448.197C235.933,474.185,243.519,488.828,262.853,523.164C297.748,585.136,370.888,653.065,370.888,653.065Z" fill="url(#fill-0-rumext-id-57)"/></g></g></g></svg>