<?xml version="1.0" standalone="no"?>
<!DOCTYPE svg PUBLIC "-//W3C//DTD SVG 20010904//EN"
 "http://www.w3.org/TR/2001/REC-SVG-20010904/DTD/svg10.dtd">
<svg version="1.0" xmlns="http://www.w3.org/2000/svg"
 width="819.000000pt" height="819.000000pt" viewBox="0 0 819.000000 819.000000"
 preserveAspectRatio="xMidYMid meet">
<metadata>
Created by potrace 1.14, written by Peter Selinger 2001-2017
</metadata>
<g transform="translate(0.000000,819.000000) scale(0.100000,-0.100000)"
fill="#000000" stroke="none">
<path d="M3975 8184 c-22 -2 -103 -8 -180 -14 -242 -19 -504 -67 -765 -141
-376 -106 -713 -262 -1165 -537 -77 -47 -171 -102 -208 -123 -161 -90 -507
-436 -723 -724 -375 -498 -637 -1102 -748 -1725 -48 -272 -60 -413 -60 -725
-1 -304 7 -407 50 -675 213 -1334 1088 -2483 2294 -3014 333 -146 674 -241
1060 -293 170 -23 757 -26 970 -5 908 90 1744 475 2395 1104 780 753 1218
1786 1219 2873 0 797 -228 1554 -669 2220 -658 994 -1732 1641 -2921 1760
-146 15 -476 26 -549 19z m120 -124 c468 -32 732 -90 1040 -228 289 -129 449
-245 866 -630 316 -291 399 -375 399 -400 l0 -23 -150 3 -150 3 0 -57 c0 -53
2 -58 22 -58 76 0 359 -22 390 -30 21 -6 48 -25 65 -44 56 -69 93 -126 93
-146 0 -20 -5 -20 -295 -20 l-296 0 2 43 c4 81 -75 367 -133 482 -41 83 -127
193 -209 269 -102 95 -290 181 -479 222 -118 25 -322 24 -451 -3 -201 -43
-570 -219 -849 -405 -58 -39 -102 -67 -98 -63 4 4 -41 40 -100 79 -59 38 -116
78 -127 88 -10 10 -26 16 -35 13 -37 -13 166 129 373 262 220 141 356 204 655
303 130 43 140 48 105 52 -66 8 -469 -11 -565 -27 -106 -17 -189 -39 -315 -86
-97 -35 -366 -155 -503 -224 l-87 -44 -104 72 c-156 108 -212 142 -229 139
-44 -9 160 98 258 135 172 64 211 116 138 181 -47 41 -124 56 -250 49 -54 -4
-97 -5 -95 -2 2 2 83 19 179 39 151 30 231 42 410 59 79 8 394 6 525 -3z
m1030 -818 l50 -7 -69 -23 c-189 -63 -349 -162 -486 -302 -52 -53 -196 -201
-320 -330 -222 -230 -459 -451 -549 -512 -25 -17 -84 -61 -131 -98 -85 -67
-255 -177 -405 -262 -109 -62 -302 -158 -307 -153 -4 4 -147 39 -417 101 -58
13 -109 28 -113 32 -5 5 45 32 110 61 278 121 552 272 832 456 199 131 317
219 538 402 292 242 487 394 582 454 219 138 482 208 685 181z m297 -382 c121
-40 227 -108 329 -210 108 -108 171 -207 246 -390 10 -24 11 -23 29 29 l19 53
110 -6 c165 -9 512 -36 580 -44 l59 -7 43 -75 c58 -101 82 -152 90 -191 l6
-32 -406 6 c-224 3 -407 3 -407 -1 0 -4 7 -39 16 -77 l17 -70 423 0 c475 0
451 4 461 -74 l6 -41 -234 1 c-129 1 -322 4 -429 8 -190 6 -195 7 -198 28 -2
12 -14 33 -27 47 -27 29 -54 28 -110 -3 -37 -21 -91 -99 -106 -154 -25 -90 28
-313 101 -424 54 -82 203 -238 280 -293 116 -83 120 -92 63 -150 -33 -33 -48
-39 -113 -50 -85 -14 -132 -35 -208 -92 -118 -88 -151 -198 -59 -198 20 0 47
16 93 55 73 62 130 85 169 67 31 -14 33 -49 5 -94 -11 -18 -20 -38 -20 -45 0
-19 56 -26 87 -9 30 15 107 93 114 114 3 10 95 10 404 1 220 -6 402 -13 405
-16 3 -3 5 -73 5 -156 l0 -152 -230 -7 c-126 -4 -312 -11 -412 -14 l-183 -6 0
-29 c0 -16 -4 -29 -10 -29 -5 0 -44 11 -87 25 -43 14 -89 25 -101 25 -13 0
-135 -30 -270 -66 -305 -82 -308 -83 -411 -84 -59 0 -89 4 -100 14 -9 8 -28
17 -42 21 -23 6 -27 3 -32 -24 -8 -41 6 -76 40 -98 24 -16 51 -18 243 -17 118
0 303 4 411 8 224 10 211 15 224 -80 11 -82 -3 -91 -154 -104 -151 -13 -201
-20 -201 -30 0 -17 78 -75 140 -104 l65 -30 506 -1 c278 -1 511 -5 517 -9 17
-10 15 -57 -4 -84 l-15 -22 -410 0 -409 0 -2 -22 c-1 -13 -2 -93 -2 -178 -1
-97 -6 -171 -14 -198 -31 -103 -170 -194 -337 -222 -55 -9 -403 10 -650 36
-322 34 -663 122 -960 247 -194 82 -393 225 -575 413 -96 100 -110 119 -164
229 -125 256 -164 396 -186 665 -19 229 17 522 88 707 29 76 100 170 188 249
42 38 116 106 164 152 49 45 104 89 123 97 106 44 347 380 528 737 126 250
188 332 315 414 137 89 189 105 349 100 103 -3 133 -8 217 -36z m1634 -1286
c48 -6 52 -9 72 -50 12 -24 25 -62 28 -84 l7 -40 -452 0 c-248 0 -451 2 -451
5 0 2 9 19 20 37 32 54 24 58 -45 21 -36 -19 -65 -31 -65 -28 0 4 30 38 67 76
l66 69 351 0 c193 0 374 -3 402 -6z m125 -331 c6 -6 14 -35 17 -62 l5 -51
-442 0 -442 0 -60 57 c-32 31 -59 60 -59 65 0 15 966 6 981 -9z m19 -218 c18
-21 59 -228 60 -296 l0 -56 -371 -8 c-203 -4 -372 -6 -374 -4 -2 2 8 37 21 78
14 40 28 95 31 122 6 53 0 62 -103 146 l-39 32 381 0 c330 1 383 -1 394 -14z
m-4089 -543 c121 -77 183 -204 224 -457 35 -212 9 -258 -130 -235 -175 30
-275 82 -351 183 -72 95 -96 157 -102 259 -4 75 -1 93 18 132 60 125 235 185
341 118z m4069 -399 l92 -6 -4 -69 c-3 -38 -9 -73 -14 -78 -5 -5 -196 -12
-424 -16 l-415 -7 -13 27 c-14 31 -3 92 24 134 l14 22 324 0 c177 0 365 -3
416 -7z m56 -279 c7 -26 -10 -99 -24 -107 -4 -3 -189 -8 -411 -12 -393 -7
-404 -7 -397 11 4 11 13 45 19 77 l11 57 398 0 398 0 6 -26z m-187 -431 l83
-6 -6 -40 c-9 -56 -46 -161 -59 -169 -7 -4 -146 -8 -309 -8 l-296 0 -6 28 c-2
15 -8 45 -11 67 -4 22 -17 61 -29 88 l-23 47 286 0 c157 0 324 -3 370 -7z
m-4471 -456 l112 -152 -91 -3 c-50 -1 -93 -1 -95 1 -4 4 -36 182 -48 265 -3
23 -3 42 1 41 5 0 59 -69 121 -152z m4437 126 c-4 -10 -16 -43 -26 -73 -11
-30 -45 -98 -77 -150 l-57 -95 -335 -2 c-264 -2 -331 1 -316 10 146 93 213
176 240 300 l6 27 286 0 c269 0 286 -1 279 -17z m-4279 -341 c5 -4 44 -50 86
-102 41 -52 92 -111 112 -129 20 -19 36 -39 36 -44 0 -10 -375 -6 -385 5 -8 8
-64 226 -65 250 0 15 13 18 98 21 53 1 99 4 102 5 3 1 10 -2 16 -6z m3702 -54
l352 3 0 -23 c0 -24 -68 -130 -132 -208 l-33 -40 -545 1 c-300 1 -612 4 -695
8 l-150 6 86 87 c158 157 244 182 579 170 102 -4 344 -6 538 -4z m-3276 -416
l103 -102 -200 0 c-110 0 -243 3 -296 6 l-96 7 -29 86 c-15 47 -30 92 -32 100
-4 11 34 13 221 10 l227 -4 102 -103z m3386 52 c6 -4 -29 -55 -87 -128 l-54
-69 -666 7 c-366 4 -667 9 -670 12 -6 5 38 97 74 154 l25 39 687 -6 c379 -3
689 -7 691 -9z m-3073 -344 c55 -47 136 -115 180 -151 l80 -64 -335 -3 c-184
-2 -382 0 -439 3 l-103 7 -63 132 c-34 72 -66 142 -70 154 l-7 24 329 -8 328
-7 100 -87z m2201 60 c595 0 614 -1 614 -19 0 -20 -163 -186 -243 -246 l-47
-36 -519 3 c-286 2 -522 6 -526 9 -7 7 25 139 56 237 16 47 25 62 36 58 8 -3
291 -6 629 -6z m-1861 -368 c53 -6 78 -19 210 -101 181 -114 348 -202 510
-269 120 -50 282 -105 343 -117 17 -4 32 -11 32 -16 0 -11 -4 -11 -54 0 -28 7
-65 4 -138 -10 -204 -39 -485 -61 -723 -56 -269 6 -409 28 -683 109 l-73 21
-94 118 c-103 130 -225 308 -225 329 0 11 77 12 418 6 229 -4 444 -10 477 -14z
m2035 -41 c0 -20 -343 -198 -557 -290 -109 -46 -341 -131 -360 -131 -6 0 -3
417 4 423 10 11 913 8 913 -2z"/>
<path d="M5080 5930 c-177 -22 -365 -123 -502 -268 -106 -113 -111 -137 -16
-81 29 17 74 39 100 50 26 10 69 30 95 43 58 30 237 72 348 81 121 10 259 -14
396 -70 62 -25 117 -41 121 -37 13 13 -9 119 -33 162 -26 45 -78 85 -140 106
-51 18 -276 26 -369 14z"/>
<path d="M5162 5645 c-144 -34 -356 -250 -417 -424 -20 -57 -19 -61 7 -61 43
0 203 106 273 180 30 32 74 60 94 60 6 0 26 -30 45 -67 45 -89 72 -114 125
-115 48 0 86 21 109 63 21 37 27 36 41 -3 15 -42 70 -128 83 -128 7 0 9 55 7
153 -4 142 -6 156 -32 209 -41 83 -90 123 -169 137 -78 13 -98 13 -166 -4z"/>
</g>
</svg>
